<?xml version="1.0" encoding="UTF-8"?>
<!DOCTYPE svg PUBLIC "-//W3C//DTD SVG 1.1//EN" "http://www.w3.org/Graphics/SVG/1.1/DTD/svg11.dtd">
<!-- Creator: CorelDRAW 2020 (64 Bit) -->
<svg xmlns="http://www.w3.org/2000/svg" xml:space="preserve" width="420px" height="297px" version="1.1" style="shape-rendering:geometricPrecision; text-rendering:geometricPrecision; image-rendering:optimizeQuality; fill-rule:evenodd; clip-rule:evenodd"
viewBox="0 0 42000 29700"
 xmlns:xlink="http://www.w3.org/1999/xlink"
 xmlns:xodm="http://www.corel.com/coreldraw/odm/2003">
 <defs>
  <style type="text/css">
   <![CDATA[
    .str0 {stroke:#FFC830;stroke-width:20;stroke-miterlimit:22.9256;stroke-dasharray:40.000000 100.000000}
    .fil1 {fill:none}
    .fil2 {fill:#22A565}
    .fil0 {fill:#AA7444}
    .fil3 {fill:white}
   ]]>
  </style>
 </defs>
 <g id="Camada_x0020_1">
  <metadata id="CorelCorpID_0Corel-Layer"/>
  <polygon class="fil0" points="29732.69,27356.55 32112.46,27356.22 30928.34,28551.56 "/>
  <line class="fil1 str0" x1="25689.11" y1="26810.03" x2="36578.95" y2= "26810.03" />
  <path class="fil2" d="M27667.12 26543.43c27.21,99.38 41.02,129.03 100.72,185.4 46.1,43.52 120.44,80.81 208.26,81.11 92.42,0.31 154.63,-35.54 206.85,-78.3 51.61,-42.25 79.93,-99.27 103,-187.29l1151.08 -1.04c20.27,86.13 52.65,145.75 100.68,186.35 163.85,138.54 385.99,87.83 479.49,-77.61 23.42,-41.43 23.67,-61.9 38.96,-108.32 96.48,-5.9 184.69,12.95 206.79,-142.66 24.11,-169.68 -49.69,-410.38 -197.15,-489.76 -135.08,-72.71 -293.54,-65.43 -427.81,-93.94 -55.7,-11.82 -84.06,-53.44 -120.8,-97.85l-103.25 -115.35c-150.67,-155.22 -317.89,-221.01 -536.47,-254.36 -188.69,-28.78 -461.76,-35.95 -646.75,3.58 -386.33,82.54 -405.11,336.49 -462.17,412.77 -24.05,32.15 -60.82,51.28 -98.48,78.17 -153.03,109.3 -183.41,329.77 -174.75,516.29 5.78,124.47 48.98,172.94 171.8,182.81zm2038.72 -204.76c-78.74,21.94 -147.1,95.15 -118.7,202.7 19.77,74.89 102.02,141.51 199.92,116.22 75.25,-19.44 143.74,-98.4 118.85,-199.41 -18.56,-75.33 -98.97,-147.67 -200.07,-119.51zm-1765.07 -1.49c-77.6,17.21 -146.83,96.93 -124.98,196.18 45.67,207.39 365.16,147.16 322.14,-69.88 -15.75,-79.43 -96.42,-148.64 -197.16,-126.3zm796.98 -491.46c52.16,0.13 613.92,5.3 636.64,-4.62 25.97,-11.34 37.84,-47.17 21.71,-76.1 -10.78,-19.35 -34.19,-43.88 -47.8,-61.51 -21.59,-27.95 -77.39,-81.5 -110.83,-103.64 -44.32,-29.34 -82.84,-51.34 -140.84,-73.78 -101.83,-39.38 -238.06,-68.75 -358.29,-73l-0.59 392.65zm-133.11 -0.49l1.55 -391.97c-95.82,-10.57 -283.64,7.39 -369.28,32.58 -104.93,30.87 -176.69,100.31 -217.45,190.63 -89.18,197.64 61.74,169.25 179.55,169.25 129.9,0 277.99,6.63 405.63,-0.49z"/>
  <g id="_1796958958656">
   <path class="fil3" d="M31668.63 26585.68c-22.48,-157.85 4.83,-261.05 89.17,-353.8 64.72,-71.17 164.88,-140.75 311.64,-136.97 183.56,4.74 334.02,134.7 375.91,295.12 22.81,87.34 3.46,121.6 9.12,194.79l1568.98 0.97c8.57,-67.72 -37.87,-197.57 82.74,-342.87 245.95,-296.31 769,-128 704.5,342.12 229.88,2.01 283.3,32.34 302.41,-124.92 8.54,-70.31 2.87,-128 -11.08,-193.99 -18.17,-85.92 16.89,-191.61 -140.49,-277.86 -134.07,-73.48 -346.13,-117.85 -499.63,-140.41 -324.63,-47.71 -206.11,-95.91 -562.28,-281.91 -462.72,-241.64 -1223.9,-328.55 -1679.08,-21.61 -384.03,258.99 -145.68,130.16 -579.59,264.87 -193.44,60.07 -180.13,109.63 -195.92,229.3 -19.72,149.55 -54.71,206.41 -48.6,375.2 6.66,184.11 102.52,170.13 272.2,171.97zm549.29 -802.23c32.39,12.45 744.85,23.65 825.49,17.33l-37.63 -313.26c-212.44,-37.65 -589.82,76.4 -770.28,258.47 -20.67,20.86 -23,23.77 -17.58,37.46zm984.06 25.32c79.42,11.45 764.09,40.48 812.91,28.66 2.83,-76.7 -281.71,-211.8 -350.99,-239.62 -151.15,-60.69 -314.89,-113.15 -502.02,-104.36l40.1 315.32z"/>
   <path class="fil3" d="M31990.37 26199.51c-412.33,100.28 -246.81,701.22 149.48,598.73 384.37,-99.4 246.07,-694.93 -149.48,-598.73z"/>
   <path class="fil3" d="M34359.1 26195.91c-409.4,88.35 -273.71,679.92 114.08,607.94 153.05,-28.41 280.78,-170.15 249.05,-361.45 -24.77,-149.34 -183.16,-285.33 -363.13,-246.49z"/>
  </g>
 </g>
</svg>
