<?xml version="1.0" encoding="UTF-8"?>
<!DOCTYPE svg PUBLIC "-//W3C//DTD SVG 1.1//EN" "http://www.w3.org/Graphics/SVG/1.1/DTD/svg11.dtd">
<!-- Creator: CorelDRAW 2020 (64 Bit) -->
<svg xmlns="http://www.w3.org/2000/svg" xml:space="preserve" width="150px" height="150px" version="1.1" style="shape-rendering:geometricPrecision; text-rendering:geometricPrecision; image-rendering:optimizeQuality; fill-rule:evenodd; clip-rule:evenodd"
viewBox="0 0 27093.32 20320"
 xmlns:xlink="http://www.w3.org/1999/xlink"
 xmlns:xodm="http://www.corel.com/coreldraw/odm/2003">
 <defs>
  <style type="text/css">
   <![CDATA[
    .fil0 {fill:#149456}
    .fil1 {fill:white}
    .fil2 {fill:white;fill-rule:nonzero}
   ]]>
  </style>
 </defs>
 <g id="Camada_x0020_1">
  <metadata id="CorelCorpID_0Corel-Layer"/>
  <rect class="fil0" x="5811.12" y="1682.83" width="17352.12" height="16267.62" rx="3267.02" ry="3267.02"/>
  <ellipse class="fil0" cx="14557.99" cy="9784.75" rx="7309.39" ry="6962.35"/>
  <path class="fil1" d="M18974.33 4705.81c3440.51,2372.67 3547.05,7586.18 326.73,10167.41 -1231.13,986.93 -2628.34,1617.14 -4278.15,1687.02 -1965.67,114.18 -3606.44,-491.8 -5068.15,-1606.37 -298.2,-227.35 -635.22,-565.5 -846.79,-840.65 -114.35,-148.7 -239.68,-298.36 -366.3,-452.07 -323.88,-393.22 -703.16,-1178.8 -872.91,-1678.83 -170.5,-502.34 -157.57,-518.76 -247.16,-971.31 -30.63,-154.78 -47.43,-270.53 -61.05,-429.72 -363.34,-1736.55 702.13,-4241.65 2109.36,-5430.84 1385.37,-1170.73 2880.35,-1845.35 4794.12,-1877.97 883.18,-15.13 1929.28,711.23 2264.84,1490.02 1066.55,2475.82 -2505.06,4140.55 -3956.81,2315.23 -1154.41,-1451.48 416.75,-3160.78 1932.46,-2518.35 324.04,137.33 552.63,324.68 701.7,661.59 166.89,377.07 79.73,756.02 -142.4,1009.92 -620.57,709.29 -1815.36,220.73 -1386.71,-472.63 135.18,211.63 112.62,416.15 494.16,404.36 805.55,-24.98 569.91,-1388.33 -552.9,-1103.26 -433.54,110.04 -796.88,479.3 -770.39,1015.62 69.77,1414.17 2546.24,1625.42 3091.6,74.29 254.86,-724.85 -54.75,-1430.38 -581.17,-1854.07 -350.85,-282.31 -826.01,-473.54 -1275.59,-508.48 -1546.29,-120.27 -3101.4,1123.24 -2502.26,3019.14 755.22,1734.17 2786.08,2077.65 4367.9,1267.84 1421.49,-727.76 2063.22,-2743.76 820.14,-4266.09 -78.87,-89.42 -114.56,-129.96 -163.93,-185.63 940.41,347.03 1317.05,495.89 2169.66,1083.83zm-7905.91 11414.69c4234,1939.35 9680.19,-83.44 10839.01,-4794.76 61.7,-250.77 88.67,-516.29 151.23,-755.49 435.16,-4634.98 -3187.59,-8083.08 -7640.23,-8061.33 -8044.75,38.17 -10408.27,10378.39 -3350.01,13611.58z"/>
  <path class="fil2" d="M11747.07 13432.85l0 -535.21 222.01 0c286.67,0 398.77,73.65 398.77,257.78 0,184.13 -112.1,277.43 -372.9,277.43l-247.88 0zm308.23 138.71c370.74,0 618.62,-168.17 618.62,-416.14 0,-247.96 -275.91,-398.95 -663.89,-398.95l-553.95 0 0 815.09 599.22 0zm1385.95 -673.92c148.74,0 209.09,45.41 209.09,109.25 0,62.6 -60.35,108.02 -219.85,108.02l-375.07 0 0 -217.27 385.83 0zm450.49 673.92l0 -230.78c0,-95.75 -47.41,-136.26 -174.59,-159.58 137.95,-28.23 213.4,-101.89 213.4,-189.04 0,-135.03 -174.59,-235.69 -439.71,-235.69l-726.4 0 0 815.09 290.98 0 0 -319.16 319.02 0c172.43,0 224.17,30.69 224.17,109.25l0 209.91 293.13 0zm418.15 0l0 -815.09 -299.61 0 0 815.09 299.61 0zm827.7 0l484.98 -815.09 -310.39 0 -310.39 572.04 -312.53 -572.04 -319.02 0 484.99 815.09 282.36 0zm1640.31 0l0 -144.85 -795.37 0 0 -209.91 700.54 0 0 -143.63 -700.54 0 0 -174.31 760.89 0 0 -142.39 -1051.88 0 0 815.09 1086.36 0zm737.17 -673.92c148.74,0 209.09,45.41 209.09,109.25 0,62.6 -60.35,108.02 -219.86,108.02l-375.06 0 0 -217.27 385.83 0zm450.49 673.92l0 -230.78c0,-95.75 -47.41,-136.26 -174.59,-159.58 137.95,-28.23 213.4,-101.89 213.4,-189.04 0,-135.03 -174.59,-235.69 -439.72,-235.69l-726.4 0 0 815.09 290.99 0 0 -319.16 319.01 0c172.43,0 224.18,30.69 224.18,109.25l0 209.91 293.13 0z"/>
  <path class="fil2" d="M11450.6 12337.48l-230.5 -466.89 -1135.86 0 -246.14 466.89 -1038.84 0 1291.25 -2377.21 1353.84 0 1313.15 2377.21 -1306.9 0zm-1133.75 -987.24l667.52 0 -334.8 -688.45 -332.72 688.45zm6393.7 -1389.97l-1219.29 1105.44 1413.28 1271.77 -1491.52 0 -770.79 -746.67 -781.22 746.67 -1172.34 0 1345.49 -1229 -1289.16 -1148.21 1490.46 0 648.75 637.36 669.64 -637.36 1156.7 0zm3605.71 1810.53l0 566.68 -3141.58 0 0 -2377.21 3141.58 0 0 548.86 -1883.68 0 0 345.71 1520.72 0 0 527.48 -1520.72 0 0 388.48 1883.68 0z"/>
  <polygon class="fil1" points="16271.1,10553.13 16271.1,11560.95 15722.24,11065.98 "/>
  <polygon class="fil1" points="13267.2,10600.78 13267.2,11608.59 13816.06,11113.62 "/>
  <polygon class="fil1" points="18003.67,9337.4 19394.33,8945.08 19621.59,9294.1 18152.49,9578.2 "/>
 </g>
</svg>
